<svg width="26" height="25" viewBox="0 0 26 25" fill="none" xmlns="http://www.w3.org/2000/svg">
<path d="M12.1408 20.9222C12.5313 21.3128 13.1645 21.3128 13.555 20.9222L19.919 14.5583C20.3095 14.1677 20.3095 13.5346 19.919 13.1441C19.5284 12.7535 18.8953 12.7535 18.5048 13.1441L12.8479 18.8009L7.19105 13.1441C6.80052 12.7535 6.16736 12.7535 5.77683 13.1441C5.38631 13.5346 5.38631 14.1677 5.77683 14.5583L12.1408 20.9222ZM11.8479 -3.89732e-08L11.8479 12.9503L13.8479 12.9503L13.8479 3.89732e-08L11.8479 -3.89732e-08ZM11.8479 12.9503L11.8479 20.2151L13.8479 20.2151L13.8479 12.9503L11.8479 12.9503Z" fill="white"/>
<path d="M0 23.8495H25.8064V25H0V23.8495Z" fill="white"/>
<rect y="20.0202" width="1.29032" height="4.02659" fill="white"/>
<rect x="24.5161" y="20.0202" width="1.29032" height="4.02659" fill="white"/>
</svg>
